<svg width="1280" height="800" xmlns="http://www.w3.org/2000/svg" viewBox="0 0 1280 800">
  <!-- 背景 -->
  <rect width="1280" height="800" fill="#f3f4f6"/>
  
  <!-- ヘッダー -->
  <rect width="1280" height="64" fill="#1f2937"/>
  <text x="20" y="40" font-family="Arial, sans-serif" font-size="20" fill="#f9fafb">コンサルティングダッシュボード - 新規プロジェクト作成</text>
  
  <!-- サイドバー -->
  <rect x="0" y="64" width="256" height="736" fill="#374151"/>
  <rect x="20" y="84" width="216" height="40" fill="#4b5563" rx="8"/>
  <text x="40" y="108" font-family="Arial, sans-serif" font-size="14" fill="#f9fafb">プロジェクト管理</text>
  
  <!-- メインコンテンツ -->
  <rect x="276" y="84" width="988" height="696" fill="#ffffff" rx="8"/>
  
  <!-- ステップインジケーター -->
  <g transform="translate(296, 104)">
    
      <circle cx="20" cy="20" r="20" fill="#3b82f6" />
      <text x="20" y="25" text-anchor="middle" font-family="Arial" font-size="16" fill="#ffffff">1</text>
      <line x1="40" y1="20" x2="200" y2="20" stroke="#3b82f6" stroke-width="2"/>
    
      <circle cx="220" cy="20" r="20" fill="#3b82f6" />
      <text x="220" y="25" text-anchor="middle" font-family="Arial" font-size="16" fill="#ffffff">2</text>
      <line x1="240" y1="20" x2="400" y2="20" stroke="#3b82f6" stroke-width="2"/>
    
      <circle cx="420" cy="20" r="20" fill="#3b82f6" />
      <text x="420" y="25" text-anchor="middle" font-family="Arial" font-size="16" fill="#ffffff">3</text>
      <line x1="440" y1="20" x2="600" y2="20" stroke="#3b82f6" stroke-width="2"/>
    
      <circle cx="620" cy="20" r="20" fill="#3b82f6" />
      <text x="620" y="25" text-anchor="middle" font-family="Arial" font-size="16" fill="#ffffff">4</text>
      <line x1="640" y1="20" x2="800" y2="20" stroke="#e5e7eb" stroke-width="2"/>
    
      <circle cx="820" cy="20" r="20" fill="#e5e7eb" />
      <text x="820" y="25" text-anchor="middle" font-family="Arial" font-size="16" fill="#6b7280">5</text>
      
    
  </g>
  
  <!-- ステップタイトル -->
  <text x="296" y="180" font-family="Arial, sans-serif" font-size="24" font-weight="bold" fill="#1f2937">マイルストーン設定</text>
  
  <!-- コンテンツエリア -->
  
    <g transform="translate(296, 220)">
      <rect width="600" height="80" fill="#f9fafb" rx="8" stroke="#e5e7eb" stroke-width="1"/>
      <text x="20" y="45" font-family="Arial, sans-serif" font-size="16" fill="#374151">フェーズ設定</text>
    </g>
  
    <g transform="translate(296, 340)">
      <rect width="600" height="80" fill="#f9fafb" rx="8" stroke="#e5e7eb" stroke-width="1"/>
      <text x="20" y="45" font-family="Arial, sans-serif" font-size="16" fill="#374151">マイルストーン登録</text>
    </g>
  
    <g transform="translate(296, 460)">
      <rect width="600" height="80" fill="#f9fafb" rx="8" stroke="#e5e7eb" stroke-width="1"/>
      <text x="20" y="45" font-family="Arial, sans-serif" font-size="16" fill="#374151">成果物定義</text>
    </g>
  
    <g transform="translate(296, 580)">
      <rect width="600" height="80" fill="#f9fafb" rx="8" stroke="#e5e7eb" stroke-width="1"/>
      <text x="20" y="45" font-family="Arial, sans-serif" font-size="16" fill="#374151">タスク作成</text>
    </g>
  
  
  <!-- アクションボタン -->
  <g transform="translate(296, 680)">
    <rect x="0" y="0" width="100" height="40" fill="#ffffff" stroke="#d1d5db" stroke-width="1" rx="8"/><text x="50" y="25" text-anchor="middle" font-family="Arial" font-size="14" fill="#374151">戻る</text>
    <rect x="500" y="0" width="120" height="40" fill="#3b82f6" rx="8"/>
    <text x="560" y="25" text-anchor="middle" font-family="Arial" font-size="14" fill="#ffffff">次へ</text>
  </g>
  
  <!-- 右側のヘルプパネル -->
  <g transform="translate(950, 220)">
    <rect width="294" height="400" fill="#f3f4f6" rx="8"/>
    <text x="20" y="40" font-family="Arial, sans-serif" font-size="18" font-weight="bold" fill="#1f2937">ヘルプ</text>
    <text x="20" y="70" font-family="Arial, sans-serif" font-size="14" fill="#4b5563">
      プロジェクトのマイルストーンを設定します
    </text>
  </g>
</svg>